<?xml version="1.0" encoding="UTF-8"?>
<svg width="90px" height="66px" viewBox="0 0 90 66" version="1.1" xmlns="http://www.w3.org/2000/svg" xmlns:xlink="http://www.w3.org/1999/xlink">
    <!-- Generator: Sketch 53.2 (72643) - https://sketchapp.com -->
    <title>noun_Privacy_1223520</title>
    <desc>Created with Sketch.</desc>
    <g id="Page-1" stroke="none" stroke-width="1" fill="none" fill-rule="evenodd">
        <g id="noun_Privacy_1223520" transform="translate(0.000000, -1.000000)" fill="#000000" fill-rule="nonzero">
            <g id="Group" transform="translate(0.000000, 0.637820)">
                <path d="M19.659884,0.37855 C18.5495328,0.493323956 17.5947114,1.21437688 17.181268,2.25032757 C16.7678246,3.28627825 16.9640968,4.46589554 17.69077,5.31249 L24.629553,13.65023 C12.049942,19.04825 4.0831345,28.05744 0.8751603,31.2625 C-0.280621114,32.430511 -0.280621114,34.310189 0.8751603,35.4782 C5.565472,40.1642 20.428267,57.3687 45.008321,57.3687 C50.249569,57.3687 55.032789,56.584 59.385979,55.3077 L67.700016,65.2692 C68.3852501,66.0997886 69.4628304,66.5007237 70.5249276,66.3202644 C71.5870247,66.1398051 72.4713718,65.4055218 72.843272,64.3953171 C73.2151722,63.3851124 73.0178067,62.2533251 72.325872,61.4283 L65.418345,53.1529 C77.982556,47.7443 85.93578,38.681 89.141481,35.4782 C90.2972624,34.310189 90.2972624,32.430511 89.141481,31.2625 C84.45116,26.57643 69.588375,9.40329 45.008321,9.40329 C39.779186,9.40329 35.007104,10.19544 30.661918,11.4643 L22.316625,1.47152 C21.6745033,0.679783686 20.6738294,0.268111458 19.659884,0.37855 L19.659884,0.37855 Z M45.008321,15.39896 C64.694127,15.39896 76.645651,27.13242 82.765302,33.386 C78.581803,37.6604 71.675666,44.4769 61.448861,48.3752 L57.385609,43.5037 C59.654194,40.7444 61.01128,37.2178 61.01128,33.386 C61.01128,24.59129 53.81097,17.39752 45.008321,17.39752 C42.203021,17.39752 39.585397,18.14848 37.288143,19.42731 L34.850192,16.49192 C37.975697,15.79728 41.36506,15.39896 45.008321,15.39896 L45.008321,15.39896 Z M28.599037,18.3968 L32.662288,23.23706 C30.376848,26.00139 29.005362,29.53831 29.005362,33.386 C29.005362,42.1807 36.205671,49.3745 45.008321,49.3745 C47.82299,49.3745 50.457137,48.6314 52.759754,47.3446 L55.197705,50.28 C52.057495,50.9823 48.670935,51.373 45.008321,51.373 C25.338281,51.373 13.375999,39.6438 7.251339,33.386 C11.436725,29.10902 18.349287,22.29356 28.599037,18.3968 Z M45.008321,23.39319 C50.56773,23.39319 55.01017,27.83159 55.01017,33.386 C55.01017,35.3797 54.439991,37.2342 53.447381,38.7883 L41.226371,24.14265 C42.393698,23.66992 43.664339,23.39319 45.008321,23.39319 L45.008321,23.39319 Z M36.56926,27.9524 L48.821526,42.6293 C47.646863,43.1091 46.362776,43.3788 45.008321,43.3788 C39.448912,43.3788 35.006471,38.9404 35.006471,33.386 C35.006471,31.3827 35.567899,29.51113 36.56926,27.9524 L36.56926,27.9524 Z" id="Shape"></path>
            </g>
        </g>
    </g>
</svg>