<?xml version="1.0" encoding="UTF-8"?>
<svg width="84px" height="68px" viewBox="0 0 84 68" version="1.1" xmlns="http://www.w3.org/2000/svg" xmlns:xlink="http://www.w3.org/1999/xlink">
    <!-- Generator: Sketch 53.2 (72643) - https://sketchapp.com -->
    <title>Shape</title>
    <desc>Created with Sketch.</desc>
    <g id="Page-1" stroke="none" stroke-width="1" fill="none" fill-rule="evenodd">
        <g id="noun_platform_3099104" transform="translate(-8.000000, -1.000000)" fill="#000000" fill-rule="nonzero">
            <path d="M50,42.333 C49.711,42.333 49.422,42.27 49.154,42.145 L9.154,23.478 C8.45,23.149 8,22.443 8,21.666 C8,20.889 8.45,20.183 9.154,19.853 L49.154,1.187 C49.691,0.937 50.309,0.937 50.846,1.187 L90.846,19.853 C91.548,20.182 91.998,20.888 91.998,21.666 C91.998,22.444 91.548,23.149 90.846,23.478 L50.846,42.146 C50.578,42.271 50.289,42.333 50,42.333 Z M14.729,21.666 L50,38.126 L85.271,21.666 L50,5.207 L14.729,21.666 Z M50.846,55.479 L90.846,36.813 C91.846,36.346 92.28,35.157 91.813,34.154 C91.346,33.154 90.161,32.719 89.155,33.188 L50,51.459 L10.846,33.188 C9.846,32.723 8.656,33.154 8.188,34.154 C7.721,35.156 8.153,36.346 9.155,36.813 L49.155,55.479 C49.423,55.604 49.712,55.667 50.001,55.667 C50.29,55.667 50.578,55.604 50.846,55.479 Z M50.846,68.813 L90.846,50.147 C91.846,49.678 92.28,48.49 91.813,47.487 C91.346,46.487 90.161,46.051 89.155,46.522 L50,64.793 L10.846,46.521 C9.846,46.056 8.656,46.486 8.188,47.486 C7.721,48.489 8.153,49.677 9.155,50.146 L49.155,68.812 C49.422,68.938 49.711,69 50,69 C50.289,69 50.578,68.938 50.846,68.813 Z" id="Shape"></path>
        </g>
    </g>
</svg>