<?xml version="1.0" encoding="UTF-8"?>
<svg width="44px" height="44px" viewBox="0 0 44 44" version="1.1" xmlns="http://www.w3.org/2000/svg" xmlns:xlink="http://www.w3.org/1999/xlink">
    <!-- Generator: Sketch 53.2 (72643) - https://sketchapp.com -->
    <title>Group</title>
    <desc>Created with Sketch.</desc>
    <g id="Page-1" stroke="none" stroke-width="1" fill="none" fill-rule="evenodd">
        <g id="noun_Download_730732" transform="translate(-28.000000, 0.000000)" fill="#000000" fill-rule="nonzero">
            <g id="Group" transform="translate(28.000000, 0.000000)">
                <g id="Shape">
                    <path d="M12,0 L5.0003297,0 C2.2368966,0 0,2.239568 0,5.0065012 L0,38.9934988 C0,41.7594229 2.2386482,44 5.0065012,44 L38.9934988,44 C41.7594229,44 44,41.7613518 44,38.9934988 L44,5.0065012 C44,2.2437052 41.758142,0 38.9996703,0 L32,0 C30.8954305,0 30,0.8954305 30,2 C30,3.1045695 30.8954305,4 32,4 L38.9996703,4 C39.5482652,4 40,4.452107 40,5.0065012 L40,38.9934988 C40,39.5514412 39.5510547,40 38.9934988,40 L5.0065012,40 C4.4485588,40 4,39.5510547 4,38.9934988 L4,5.0065012 C4,4.447639 4.447105,4 5.0003297,4 L12,4 C13.1045695,4 14,3.1045695 14,2 C14,0.8954305 13.1045695,0 12,0 Z M20.2823393,30.808959 C21.2509472,31.7899507 22.8210143,31.7860073 23.7942534,30.7949874 L35.3792301,18.9983567 C37.261461,17.1122018 34.4391127,14.2839694 32.5568818,16.1701244 L24.6966045,24.0535272 C24.3096903,24.4415797 23.9960344,24.305336 23.9960344,23.7550262 L23.9960344,2.0049303 C23.9960344,0.8976379 23.1100789,0 22.0000313,0 C20.8976693,0 20.0040283,0.8957102 20.0040283,2.0049303 L20.0040283,23.7550262 C20.0040283,24.3079363 19.6891903,24.4403942 19.3034582,24.0535272 L11.4431809,16.1701244 C9.561948,14.2839694 6.7386017,17.1122018 8.6208326,18.9983567 L20.2823393,30.808959 Z"></path>
                </g>
            </g>
        </g>
    </g>
</svg>