<?xml version="1.0" encoding="UTF-8"?>
<svg width="120px" height="92px" viewBox="0 0 120 92" version="1.1" xmlns="http://www.w3.org/2000/svg" xmlns:xlink="http://www.w3.org/1999/xlink">
    <!-- Generator: Sketch 53.2 (72643) - https://sketchapp.com -->
    <title>Group</title>
    <desc>Created with Sketch.</desc>
    <g id="Page-1" stroke="none" stroke-width="1" fill="none" fill-rule="evenodd">
        <g id="noun_signal_968861" transform="translate(-20.000000, 0.000000)" fill="#000000" fill-rule="nonzero">
            <g id="Group" transform="translate(20.000000, 0.000000)">
                <path d="M100.4,46 C100.4,40.5 99.3,35.2 97.2,30.2 C95.2,25.4 92.3,21 88.6,17.3 L85.8,14.5 L80.1,20.1 L82.9,22.9 C85.9,25.9 88.2,29.4 89.8,33.3 C91.5,37.3 92.3,41.6 92.3,46 C92.3,50.4 91.4,54.7 89.8,58.7 C88.2,62.6 85.8,66.1 82.9,69.1 L80.1,71.9 L85.8,77.5 L88.6,74.7 C92.3,71 95.2,66.6 97.2,61.8 C99.3,56.8 100.4,51.5 100.4,46 Z" id="Path"></path>
                <path d="M30.2,58.7 C28.5,54.7 27.7,50.4 27.7,46 C27.7,41.6 28.6,37.3 30.2,33.3 C31.8,29.4 34.2,25.9 37.1,22.9 L39.9,20.1 L34.2,14.5 L31.4,17.3 C27.7,21 24.8,25.4 22.8,30.2 C20.7,35.2 19.6,40.5 19.6,46 C19.6,51.5 20.7,56.8 22.8,61.8 C24.8,66.6 27.7,71 31.4,74.7 L34.2,77.5 L39.9,71.9 L37.1,69.1 C34.2,66.1 31.8,62.6 30.2,58.7 Z" id="Path"></path>
                <path d="M115.3,22.5 C112.3,15.3 108,8.9 102.4,3.3 L99.6,0.5 L93.9,6.1 L96.7,8.9 C101.5,13.7 105.2,19.3 107.9,25.5 C110.6,32 112,38.8 112,45.9 C112,53 110.6,59.8 107.9,66.3 C105.3,72.5 101.5,78.1 96.7,82.9 L93.9,85.7 L99.6,91.3 L102.4,88.5 C107.9,83 112.2,76.5 115.3,69.3 C118.4,62 120,54.1 120,46 C120,37.9 118.4,30 115.3,22.5 Z" id="Path"></path>
                <path d="M12.1,66.4 C9.4,59.9 8,53.1 8,46 C8,38.9 9.4,32.1 12.1,25.6 C14.7,19.4 18.5,13.8 23.3,9 L26.1,6.2 L20.4,0.6 L17.6,3.4 C12.1,8.9 7.8,15.4 4.7,22.6 C1.6,30 0,37.9 0,46 C0,54.1 1.6,62 4.7,69.5 C7.7,76.7 12,83.1 17.6,88.7 L20.4,91.5 L26.1,85.9 L23.3,83.1 C18.5,78.2 14.7,72.6 12.1,66.4 Z" id="Path"></path>
                <path d="M79.1,37.9 C78.1,35.4 76.6,33.2 74.7,31.3 C72.8,29.4 70.6,27.9 68.1,26.8 C66.8,26.2 65.4,25.8 64,25.6 L64,2.1 L56,2.1 L56,25.5 C54.6,25.8 53.2,26.2 51.9,26.7 C49.4,27.7 47.2,29.3 45.3,31.2 C43.4,33.1 41.9,35.3 40.9,37.8 C39.8,40.4 39.3,43.1 39.3,45.9 C39.3,48.7 39.8,51.4 40.9,54 C41.9,56.5 43.4,58.7 45.3,60.6 C47.2,62.5 49.4,64 51.9,65.1 C53.2,65.7 54.6,66.1 56,66.3 L56,89.7 L64,89.7 L64,66.3 C65.4,66 66.8,65.6 68.1,65.1 C70.6,64.1 72.8,62.6 74.7,60.6 C76.6,58.7 78.1,56.5 79.1,54 C80.2,51.4 80.7,48.7 80.7,45.9 C80.7,43.2 80.2,40.5 79.1,37.9 Z M71.7,51 C71.1,52.5 70.1,53.9 69,55.1 C67.8,56.3 66.5,57.2 65,57.8 C61.9,59.1 58.3,59.1 55.1,57.8 C53.6,57.2 52.2,56.2 51.1,55.1 C49.9,53.9 49,52.6 48.4,51 C47.7,49.4 47.4,47.7 47.4,46 C47.4,44.3 47.7,42.6 48.4,41 C49,39.5 50,38.1 51.1,36.9 C52.3,35.7 53.6,34.8 55.1,34.2 C56.7,33.5 58.3,33.2 60,33.2 C61.7,33.2 63.4,33.5 64.9,34.2 C66.4,34.8 67.8,35.8 68.9,36.9 C70.1,38.1 71,39.4 71.6,41 C72.3,42.6 72.6,44.3 72.6,46 C72.6,47.7 72.4,49.4 71.7,51 Z" id="Shape"></path>
            </g>
        </g>
    </g>
</svg>