<?xml version="1.0" encoding="UTF-8"?>
<svg width="822px" height="1003px" viewBox="0 0 822 1003" version="1.1" xmlns="http://www.w3.org/2000/svg" xmlns:xlink="http://www.w3.org/1999/xlink">
    <!-- Generator: Sketch 53.2 (72643) - https://sketchapp.com -->
    <title>Group</title>
    <desc>Created with Sketch.</desc>
    <g id="Page-1" stroke="none" stroke-width="1" fill="none" fill-rule="evenodd">
        <g id="noun_verify_2709634" transform="translate(-101.000000, 0.000000)" fill="#000000" fill-rule="nonzero">
            <g id="Group" transform="translate(101.900000, 0.474143)">
                <path d="M599.5,828.025857 C575.9,841.425857 552.3,854.825857 528.7,868.225857 C491.1,889.525857 453.6,910.925857 416,932.225857 C407.4,937.125857 398.9,941.925857 390.3,946.825857 C400.4,946.825857 410.5,946.825857 420.6,946.825857 C380.9,923.725857 341.2,900.625857 301.5,877.425857 C278.4,864.025857 255.3,850.525857 232.2,837.125857 C227.4,834.325857 222.7,831.625857 217.9,828.825857 C211.3,824.925857 204.7,820.925857 198.4,816.625857 C193.4,813.325857 188.6,809.825857 183.8,806.225857 C182.1,804.925857 177.7,801.325857 185.1,807.325857 C183.9,806.425857 182.8,805.525857 181.6,804.525857 C178.9,802.325857 176.2,800.125857 173.6,797.925857 C163.5,789.325857 153.8,780.125857 144.8,770.425857 C140.1,765.425857 135.6,760.225857 131.2,755.025857 C129,752.425857 126.9,749.625857 124.8,747.025857 C131.7,755.425857 124,745.925857 122.4,743.725857 C106.6,722.025857 93.4,698.525857 83,673.825857 C84,676.225857 85,678.625857 86,681.025857 C74.2,652.825857 66.2,623.325857 62.1,593.025857 C62.5,595.725857 62.8,598.325857 63.2,601.025857 C60.1,577.925857 60.1,554.925857 60.1,531.625857 C60.1,502.925857 60.1,474.225857 60.1,445.625857 C60.1,407.625857 60.1,369.725857 60.1,331.725857 C60.1,297.925857 60.1,264.125857 60.1,230.325857 C60.1,213.625857 60.6,196.825857 60.1,180.025857 C60.1,179.825857 60.1,179.525857 60.1,179.325857 C50.1,189.325857 40.1,199.325857 30.1,209.325857 C96.9,209.325857 164.4,197.725857 227.2,174.725857 C259.7,162.825857 291.4,148.325857 321.4,130.925857 C346.8,116.225857 370.5,99.325857 393.5,81.225857 C406.1,71.325857 418.8,61.425857 431.4,51.525857 C417.3,51.525857 403.1,51.525857 389,51.525857 C421.3,76.825857 453.1,103.025857 488.2,124.525857 C545.5,159.525857 609.5,184.725857 675.3,197.825857 C713.1,205.325857 751.8,209.425857 790.3,209.425857 C780.3,199.425857 770.3,189.425857 760.3,179.425857 C760.3,193.125857 760.3,206.825857 760.3,220.525857 C760.3,252.725857 760.3,284.825857 760.3,317.025857 C760.3,354.925857 760.3,392.825857 760.3,430.625857 C760.3,461.025857 760.3,491.425857 760.3,521.825857 C760.3,540.225857 760.7,558.725857 759.4,577.025857 C758.9,584.225857 758.1,591.325857 757.2,598.425857 C757.6,595.725857 757.9,593.125857 758.3,590.425857 C754.1,620.925857 746,650.825857 734.1,679.225857 C735.1,676.825857 736.1,674.425857 737.1,672.025857 C725.8,698.625857 711.4,723.725857 693.9,746.725857 C689.9,752.025857 697.6,742.025857 694.6,745.825857 C693.4,747.325857 692.2,748.825857 691,750.325857 C688.7,753.125857 686.3,755.925857 684,758.725857 C679.2,764.225857 674.2,769.625857 669.1,774.825857 C658.9,785.125857 648.1,794.725857 636.8,803.725857 C633.2,806.625857 639.3,801.825857 639.4,801.725857 C638.5,802.525857 637.4,803.225857 636.5,803.925857 C634.9,805.125857 633.3,806.325857 631.7,807.425857 C628.3,809.925857 624.8,812.325857 621.3,814.625857 C614.1,819.425857 606.9,823.825857 599.5,828.025857 C585.9,835.825857 580,855.525857 588.7,869.025857 C597.6,882.825857 615.2,888.125857 629.7,879.825857 C665.6,859.325857 698.6,832.825857 725.7,801.625857 C753.9,769.325857 775.9,733.225857 792.3,693.725857 C808,655.925857 816.7,615.525857 819.4,574.625857 C820.2,562.625857 820.1,550.525857 820.1,538.425857 C820.1,499.525857 820.1,460.725857 820.1,421.825857 C820.1,370.625857 820.1,319.425857 820.1,268.325857 C820.1,239.125857 820.5,209.825857 820.1,180.525857 C820.1,180.125857 820.1,179.625857 820.1,179.225857 C820.1,163.025857 806.4,149.225857 790.1,149.225857 C765.4,149.225857 740.6,147.525857 716.1,144.225857 C718.8,144.625857 721.4,144.925857 724.1,145.325857 C676,138.725857 628.9,125.825857 584.1,107.025857 C586.5,108.025857 588.9,109.025857 591.3,110.025857 C558.3,96.025857 526.7,79.025857 497.1,58.925857 C489.6,53.925857 482.3,48.625857 475.1,43.225857 C473.3,41.825857 471.5,40.525857 469.7,39.125857 C470.6,39.825857 474.9,43.125857 471.7,40.625857 C471.1,40.125857 470.5,39.725857 469.9,39.225857 C463,33.825857 456.1,28.325857 449.1,22.925857 C443.1,18.225857 437.2,13.525857 431.2,8.82585697 C425,3.92585697 418.4,-0.374143026 410,0.025856974 C401.5,0.425856974 395.4,3.62585697 388.8,8.82585697 C376.4,18.525857 364.1,28.225857 351.7,37.925857 C349.8,39.425857 343.2,44.225857 350.3,39.025857 C343,44.325857 335.9,49.825857 328.5,55.025857 C313.8,65.225857 298.5,74.725857 282.9,83.525857 C265.3,93.325857 247.3,102.125857 228.8,109.925857 C231.2,108.925857 233.6,107.925857 236,106.925857 C191.2,125.725857 144.1,138.625857 96,145.225857 C98.7,144.825857 101.3,144.525857 104,144.125857 C79.5,147.425857 54.8,149.125857 30,149.125857 C13.8,149.125857 0,162.825857 0,179.125857 C0,200.925857 0,222.825857 0,244.625857 C0,291.025857 0,337.325857 0,383.725857 C0,427.025857 0,470.325857 0,513.725857 C0,525.425857 0,537.125857 0,548.825857 C0,569.925857 1.6,590.825857 4.6,611.725857 C15.6,688.225857 52.4,760.825857 105.9,816.425857 C129.9,841.325857 157.8,863.025857 187.7,880.525857 C197.2,886.125857 206.8,891.625857 216.3,897.225857 C256.2,920.425857 296,943.625857 335.9,966.825857 C351,975.625857 366.2,984.425857 381.3,993.225857 C384.2,994.925857 387.1,996.725857 390.1,998.325857 C400.1,1003.62586 410.8,1003.62586 420.9,998.325857 C421.9,997.825857 422.8,997.225857 423.8,996.725857 C456,978.425857 488.3,960.125857 520.5,941.825857 C555,922.225857 589.5,902.625857 624,883.025857 C625.9,881.925857 627.9,880.825857 629.8,879.725857 C643.5,871.925857 649.3,852.225857 640.6,838.725857 C631.6,825.025857 614.1,819.725857 599.5,828.025857 Z" id="Path"></path>
                <path d="M185.5,524.125857 C200.6,539.225857 215.8,554.425857 230.9,569.525857 C255.1,593.725857 279.2,617.825857 303.4,642.025857 C309,647.625857 314.5,653.125857 320.1,658.725857 C331.6,670.225857 351,670.225857 362.5,658.725857 C371.5,649.725857 380.6,640.625857 389.6,631.625857 C411.2,610.025857 432.8,588.425857 454.4,566.825857 C480.6,540.625857 506.9,514.325857 533.1,488.125857 C555.7,465.525857 578.3,442.925857 600.9,420.325857 C611.9,409.325857 623.3,398.425857 634.1,387.125857 C634.3,386.925857 634.4,386.825857 634.6,386.625857 C645.7,375.525857 646.5,355.125857 634.6,344.225857 C622.6,333.225857 604,332.325857 592.2,344.225857 C583.2,353.225857 574.1,362.325857 565.1,371.325857 C543.5,392.925857 521.9,414.525857 500.3,436.125857 C474.1,462.325857 447.8,488.625857 421.6,514.825857 C399,537.425857 376.4,560.025857 353.8,582.625857 C342.8,593.625857 331.3,604.425857 320.6,615.825857 C320.4,616.025857 320.3,616.125857 320.1,616.325857 C334.2,616.325857 348.4,616.325857 362.5,616.325857 C347.4,601.225857 332.2,586.025857 317.1,570.925857 C292.9,546.725857 268.8,522.625857 244.6,498.425857 C239,492.825857 233.5,487.325857 227.9,481.725857 C216.8,470.625857 196.4,469.825857 185.5,481.725857 C174.5,493.625857 173.7,512.225857 185.5,524.125857 L185.5,524.125857 Z" id="Path"></path>
            </g>
        </g>
    </g>
</svg>