<?xml version="1.0" encoding="UTF-8"?>
<svg width="200px" height="200px" viewBox="0 0 200 200" version="1.1" xmlns="http://www.w3.org/2000/svg" xmlns:xlink="http://www.w3.org/1999/xlink">
    <!-- Generator: Sketch 53.2 (72643) - https://sketchapp.com -->
    <title>Letter</title>
    <desc>Created with Sketch.</desc>
    <defs>
        <linearGradient x1="28.5893631%" y1="85.307996%" x2="28.5893631%" y2="13.7616296%" id="linearGradient-1">
            <stop stop-color="#A100FF" offset="0%"></stop>
            <stop stop-color="#00FFBE" offset="100%"></stop>
        </linearGradient>
    </defs>
    <g id="Letter" stroke="none" stroke-width="1" fill="none" fill-rule="evenodd">
        <rect id="bg" stroke="#979797" fill="#FFFFFF" x="0.5" y="0.5" width="199" height="199" rx="40"></rect>
        <path d="M48.1159402,90.1429984 L108.63098,33.6527678 C111.315711,31.146596 115.523769,31.291347 118.029941,33.9760782 C120.180944,36.2803358 120.418669,39.7781756 118.599217,42.3522793 L87.314558,86.6128182 L143.012849,86.6128182 C150.192551,86.6128182 156.012849,92.4331164 156.012849,99.6128182 C156.012849,103.177844 154.548794,106.586438 151.963293,109.040943 L92.9155711,165.096982 C89.9515809,167.9108 85.2677418,167.789062 82.4539238,164.825072 C80.1218219,162.368507 79.7553766,158.642121 81.5642859,155.778337 L108.80885,112.645971 L102.688675,112.645971 L56.986877,112.645971 C49.8071752,112.645971 43.986877,106.825672 43.986877,99.6459706 C43.986877,96.0429901 45.4821692,92.6015993 48.1159402,90.1429984 Z" id="Path" fill="url(#linearGradient-1)"></path>
    </g>
</svg>