<?xml version="1.0" encoding="UTF-8"?>
<svg width="318px" height="320px" viewBox="0 0 318 320" version="1.1" xmlns="http://www.w3.org/2000/svg" xmlns:xlink="http://www.w3.org/1999/xlink">
    <!-- Generator: Sketch 53.2 (72643) - https://sketchapp.com -->
    <title>Group</title>
    <desc>Created with Sketch.</desc>
    <g id="Page-1" stroke="none" stroke-width="1" fill="none" fill-rule="evenodd">
        <g id="Download" transform="translate(-472.000000, -725.000000)">
            <g id="Group" transform="translate(473.000000, 726.000000)">
                <path d="M105.119293,-4.24694526e-15 L210.880707,4.24694526e-15 C247.432975,-2.4675975e-15 260.687711,3.80585006 274.050674,10.9524409 C287.413637,18.0990317 297.900968,28.5863632 305.047559,41.9493262 C312.19415,55.3122891 316,68.5670249 316,105.119293 L316,212.880707 C316,249.432975 312.19415,262.687711 305.047559,276.050674 C297.900968,289.413637 287.413637,299.900968 274.050674,307.047559 C260.687711,314.19415 247.432975,318 210.880707,318 L105.119293,318 C68.5670249,318 55.3122891,314.19415 41.9493262,307.047559 C28.5863632,299.900968 18.0990317,289.413637 10.9524409,276.050674 C3.80585006,262.687711 1.645065e-15,249.432975 -2.83129684e-15,212.880707 L2.83129684e-15,105.119293 C-1.645065e-15,68.5670249 3.80585006,55.3122891 10.9524409,41.9493262 C18.0990317,28.5863632 28.5863632,18.0990317 41.9493262,10.9524409 C55.3122891,3.80585006 68.5670249,2.4675975e-15 105.119293,-4.24694526e-15 Z" id="App-Icon-Copy" stroke="#838383" fill="#FFFFFF"></path>
                <g id="Group-6-Copy-2" transform="translate(47.000000, 45.000000)">
                    <polygon id="Mask-Copy" fill="#00FF00" transform="translate(166.500000, 144.000000) rotate(-360.000000) translate(-166.500000, -144.000000) " points="166.802839 96 222 192 111 192"></polygon>
                    <polygon id="Mask-Copy" fill="#0000FF" transform="translate(55.500000, 144.000000) rotate(-360.000000) translate(-55.500000, -144.000000) " points="55.8028386 96 111 192 0 192"></polygon>
                    <polygon id="Mask-Copy-2" fill="#FF0000" transform="translate(111.500000, 48.000000) rotate(-360.000000) translate(-111.500000, -48.000000) " points="111.802839 0 167 96 56 96"></polygon>
                    <polygon id="Mask-Copy" fill="#000000" transform="translate(111.500000, 144.000000) rotate(-180.000000) translate(-111.500000, -144.000000) " points="111.802839 96 167 192 56 192"></polygon>
                </g>
            </g>
        </g>
    </g>
</svg>