<?xml version="1.0" encoding="UTF-8"?>
<svg width="52px" height="70px" viewBox="0 0 52 70" version="1.1" xmlns="http://www.w3.org/2000/svg" xmlns:xlink="http://www.w3.org/1999/xlink">
    <!-- Generator: Sketch 53.2 (72643) - https://sketchapp.com -->
    <title>Shape</title>
    <desc>Created with Sketch.</desc>
    <g id="Page-1" stroke="none" stroke-width="1" fill="none" fill-rule="evenodd">
        <g id="noun_Lock_649670" transform="translate(-24.000000, 0.000000)" fill="#000000" fill-rule="nonzero">
            <path d="M69,27.696 L63.833,27.696 L63.833,14.081 C63.833,6.453 57.627,0.247 49.999,0.247 C42.371,0.247 36.166,6.453 36.166,14.081 L36.166,27.696 L31,27.696 C27.416,27.696 24.5,30.612 24.5,34.196 L24.5,63.253 C24.5,66.837 27.416,69.753 31,69.753 L69,69.753 C72.584,69.753 75.5,66.837 75.5,63.253 L75.5,34.196 C75.5,30.612 72.584,27.696 69,27.696 Z M41.166,14.081 C41.166,9.21 45.129,5.247 49.999,5.247 C54.87,5.247 58.833,9.21 58.833,14.081 L58.833,27.696 L41.166,27.696 L41.166,14.081 Z M70.5,63.253 C70.5,64.08 69.827,64.753 69,64.753 L31,64.753 C30.173,64.753 29.5,64.08 29.5,63.253 L29.5,34.196 C29.5,33.369 30.173,32.696 31,32.696 L69,32.696 C69.827,32.696 70.5,33.369 70.5,34.196 L70.5,63.253 Z M50,39.919 C47.423,39.919 45.333,42.009 45.333,44.587 C45.333,46.132 46.093,47.49 47.25,48.34 L47.25,55.542 C47.25,57.062 48.481,58.292 50,58.292 C51.519,58.292 52.75,57.062 52.75,55.542 L52.75,48.34 C53.907,47.49 54.667,46.132 54.667,44.587 C54.667,42.009 52.577,39.919 50,39.919 Z" id="Shape"></path>
        </g>
    </g>
</svg>