<?xml version="1.0" encoding="UTF-8"?>
<svg width="2000px" height="2000px" viewBox="0 0 2000 2000" version="1.1" xmlns="http://www.w3.org/2000/svg" xmlns:xlink="http://www.w3.org/1999/xlink">
    <!-- Generator: Sketch 53.2 (72643) - https://sketchapp.com -->
    <title>simplex</title>
    <desc>Created with Sketch.</desc>
    <g id="simplex" stroke="none" stroke-width="1" fill="none" fill-rule="evenodd">
        <g id="Group-8" transform="translate(1449.000000, 456.000000)">
            <text id="Compromised" font-family="HelveticaNeue, Helvetica Neue" font-size="42" font-weight="normal" fill="#FFFFFF">
                <tspan x="100.444" y="172">Compromised</tspan>
            </text>
            <path d="M293,312 L152,312 L152,364 C152,372.836556 159.163444,380 168,380 L277,380 C285.836556,380 293,372.836556 293,364 L293,312 Z" id="Combined-Shape" stroke="#FFFFFF" stroke-width="12"></path>
            <rect id="Rectangle-Copy-2" stroke="#FFFFFF" stroke-width="12" x="6" y="6" width="433" height="306" rx="22"></rect>
            <rect id="Rectangle-Copy-2" stroke="#FFFFFF" stroke-width="12" x="48" y="54" width="349" height="205" rx="11"></rect>
            <circle id="Oval" stroke="#FFFFFF" stroke-width="12" cx="223" cy="30" r="10"></circle>
        </g>
        <g id="Group-8-Copy" transform="translate(1419.000000, 1219.000000)">
            <text id="Compromised" font-family="HelveticaNeue, Helvetica Neue" font-size="42" font-weight="normal" fill="#FFFFFF">
                <tspan x="100.444" y="172">Compromised</tspan>
            </text>
            <path d="M293,312 L152,312 L152,364 C152,372.836556 159.163444,380 168,380 L277,380 C285.836556,380 293,372.836556 293,364 L293,312 Z" id="Combined-Shape" stroke="#FFFFFF" stroke-width="12"></path>
            <rect id="Rectangle-Copy-2" stroke="#FFFFFF" stroke-width="12" x="6" y="6" width="433" height="306" rx="22"></rect>
            <rect id="Rectangle-Copy-2" stroke="#FFFFFF" stroke-width="12" x="48" y="54" width="349" height="205" rx="11"></rect>
            <circle id="Oval" stroke="#FFFFFF" stroke-width="12" cx="223" cy="30" r="10"></circle>
        </g>
        <text id="Lightstream-(1-way-c" font-family="HelveticaNeue, Helvetica Neue" font-size="56" font-weight="normal" fill="#FFFFFF">
            <tspan x="509.392" y="676">Lightstream (1-way communication)</tspan>
        </text>
        <text id="WIFI-(2-way-communic" font-family="HelveticaNeue, Helvetica Neue" font-size="56" font-weight="normal" fill="#FFFFFF">
            <tspan x="583.728" y="1426">WIFI (2-way communication)</tspan>
        </text>
        <g id="Group-7" transform="translate(177.000000, 519.000000)">
            <text id="Clean" font-family="HelveticaNeue, Helvetica Neue" font-size="56" font-weight="normal" fill="#FFFFFF">
                <tspan x="45.428" y="145">Clean</tspan>
            </text>
            <rect id="Rectangle" stroke="#FFFFFF" stroke-width="12" x="6" y="6" width="224" height="290" rx="32"></rect>
            <circle id="Oval" stroke="#FFFFFF" stroke-width="12" cx="118" cy="253" r="14"></circle>
            <rect id="Rectangle" stroke="#FFFFFF" stroke-width="12" x="31" y="31" width="178" height="187" rx="22"></rect>
        </g>
        <g id="Group-7-Copy" transform="translate(147.000000, 1282.000000)">
            <text id="Clean" font-family="HelveticaNeue, Helvetica Neue" font-size="56" font-weight="normal" fill="#FFFFFF">
                <tspan x="45.428" y="145">Clean</tspan>
            </text>
            <rect id="Rectangle" stroke="#FFFFFF" stroke-width="12" x="6" y="6" width="224" height="290" rx="32"></rect>
            <circle id="Oval" stroke="#FFFFFF" stroke-width="12" cx="118" cy="253" r="14"></circle>
            <rect id="Rectangle" stroke="#FFFFFF" stroke-width="12" x="31" y="31" width="178" height="187" rx="22"></rect>
        </g>
        <g id="Group-4" transform="translate(514.000000, 410.000000)">
            <g id="Group" transform="translate(891.185911, 163.438960) rotate(15.000000) translate(-891.185911, -163.438960) translate(873.685911, 131.438960)" stroke="#FFFFFF" stroke-dasharray="10,20" stroke-linecap="square" stroke-width="10">
                <path d="M34,34 L0,0" id="Line-Copy-3"></path>
                <path d="M34,34 L4,64" id="Line-Copy-4"></path>
            </g>
            <g id="Group-3-Copy" transform="translate(0.000000, 90.000000)" stroke="#FFFFFF" stroke-dasharray="20,10" stroke-width="10">
                <path d="M891,74 C826.017934,36.7430503 691.686959,8.97936709 529.437074,1.19955417" id="Oval-Copy-6"></path>
                <path d="M351.633597,0.82756799 C199.624499,7.45256256 71.2473525,31.5731051 0,64.707115" id="Oval-Copy-6"></path>
            </g>
            <g id="Group-4-Copy" transform="translate(352.000000, 0.000000)">
                <path d="M89,178 C138.153343,178 178,138.153343 178,89 C178,39.8466573 138.153343,0 89,0 C39.8466573,0 0,39.8466573 0,89 C0,138.153343 39.8466573,178 89,178 Z" id="Oval-Copy-8" stroke="#FFFFFF" stroke-width="10" stroke-dasharray="20,10"></path>
                <text id="Data" font-family="HelveticaNeue-Bold, Helvetica Neue" font-size="24" font-weight="bold" fill="#FFFFFF">
                    <tspan x="66.108" y="99">Data</tspan>
                </text>
            </g>
        </g>
        <g id="Group-Copy" transform="translate(484.185911, 1540.438960) scale(-1, -1) rotate(15.000000) translate(-484.185911, -1540.438960) translate(466.685911, 1508.438960)" stroke="#FFFFFF" stroke-dasharray="10,20" stroke-linecap="square" stroke-width="10">
            <path d="M34,34 L0,0" id="Line-Copy-3"></path>
            <path d="M34,34 L4,64" id="Line-Copy-4"></path>
        </g>
        <g id="Group-3" transform="translate(1094.000000, 1605.000000)"></g>
        <g id="Group-3-Copy" transform="translate(486.000000, 1235.000000)" stroke="#FFFFFF" stroke-dasharray="20,10" stroke-width="10">
            <path d="M891,74 C826.017934,36.7430503 691.686959,8.97936709 529.437074,1.19955417" id="Oval-Copy-6"></path>
            <path d="M351.633597,0.82756799 C199.624499,7.45256256 71.2473525,31.5731051 0,64.707115" id="Oval-Copy-6"></path>
        </g>
        <g id="Group" transform="translate(1374.185911, 1305.438960) rotate(15.000000) translate(-1374.185911, -1305.438960) translate(1356.685911, 1273.438960)" stroke="#FFFFFF" stroke-dasharray="10,20" stroke-linecap="square" stroke-width="10">
            <path d="M34,34 L0,0" id="Line-Copy-3"></path>
            <path d="M34,34 L4,64" id="Line-Copy-4"></path>
        </g>
        <g id="Group-4-Copy" transform="translate(838.000000, 1145.000000)">
            <path d="M89,178 C138.153343,178 178,138.153343 178,89 C178,39.8466573 138.153343,0 89,0 C39.8466573,0 0,39.8466573 0,89 C0,138.153343 39.8466573,178 89,178 Z" id="Oval-Copy-8" stroke="#FFFFFF" stroke-width="10" stroke-dasharray="20,10"></path>
            <text id="Data" font-family="HelveticaNeue-Bold, Helvetica Neue" font-size="24" font-weight="bold" fill="#FFFFFF">
                <tspan x="66.108" y="99">Data</tspan>
            </text>
        </g>
        <g id="Group-5" transform="translate(1108.000000, 1501.000000)">
            <path d="M75,150 C116.421356,150 150,116.421356 150,75 C150,33.5786438 116.421356,0 75,0 C33.5786438,0 0,33.5786438 0,75 C0,116.421356 33.5786438,150 75,150 Z" id="Oval-Copy-6" stroke="#FFFFFF" stroke-width="10" stroke-dasharray="20,10"></path>
            <text id="Ransom-ware" font-family="HelveticaNeue, Helvetica Neue" font-size="24" font-weight="normal" fill="#FFFFFF">
                <tspan x="31.04" y="75">Ransom</tspan>
                <tspan x="49.736" y="103">ware</tspan>
            </text>
        </g>
        <g id="Group-6" transform="translate(852.000000, 1553.000000)">
            <path d="M75,150 C116.421356,150 150,116.421356 150,75 C150,33.5786438 116.421356,0 75,0 C33.5786438,0 0,33.5786438 0,75 C0,116.421356 33.5786438,150 75,150 Z" id="Oval-Copy-6" stroke="#FFFFFF" stroke-width="10" stroke-dasharray="20,10"></path>
            <text id="Key-loggers" font-family="HelveticaNeue, Helvetica Neue" font-size="24" font-weight="normal" fill="#FFFFFF">
                <tspan x="54.552" y="70">Key</tspan>
                <tspan x="35.232" y="98">loggers</tspan>
            </text>
        </g>
        <g id="Group-2" transform="translate(605.000000, 1511.000000)">
            <path d="M75,150 C116.421356,150 150,116.421356 150,75 C150,33.5786438 116.421356,0 75,0 C33.5786438,0 0,33.5786438 0,75 C0,116.421356 33.5786438,150 75,150 Z" id="Oval-Copy-7" stroke="#FFFFFF" stroke-width="10" stroke-dasharray="20,10"></path>
            <text id="Virus" font-family="HelveticaNeue, Helvetica Neue" font-size="24" font-weight="normal" fill="#FFFFFF">
                <tspan x="48.052" y="84">Virus</tspan>
            </text>
        </g>
        <g id="Group-3-Copy-2" transform="translate(546.000000, 1559.000000) scale(1, -1) translate(-546.000000, -1559.000000) translate(486.000000, 1540.000000)" stroke="#FFFFFF" stroke-dasharray="20,10" stroke-width="10">
            <path d="M119.241619,0.993291127 C70.8880072,11.1685989 30.2833649,23.623654 0,37.707115" id="Oval-Copy-6"></path>
        </g>
        <g id="Group-3-Copy-2" transform="translate(1066.000000, 1565.000000) scale(1, -1) translate(-1066.000000, -1565.000000) translate(755.000000, 1528.000000)" stroke="#FFFFFF" stroke-dasharray="20,10" stroke-width="10">
            <path d="M103.715704,0.0265653866 C67.8110387,1.19164433 33.1056668,3.32754002 0.0232226736,6.32698291" id="Oval-Copy-6"></path>
            <path d="M622,74 C593.766881,57.8127662 552.442837,43.4175668 501.425772,31.6747943" id="Oval-Copy-6"></path>
        </g>
        <g id="Group-3-Copy-2" transform="translate(1054.500000, 1600.500000) scale(1, -1) translate(-1054.500000, -1600.500000) translate(999.000000, 1596.000000)" stroke="#FFFFFF" stroke-dasharray="20,10" stroke-width="10">
            <path d="M110.486835,8.22083242 C75.5810437,4.62559517 38.6960207,2.00668774 0.360545165,0.498003755" id="Oval-Copy-6"></path>
        </g>
    </g>
</svg>