<?xml version="1.0" encoding="UTF-8"?>
<svg width="2000px" height="2000px" viewBox="0 0 2000 2000" version="1.1" xmlns="http://www.w3.org/2000/svg" xmlns:xlink="http://www.w3.org/1999/xlink">
    <!-- Generator: Sketch 53.2 (72643) - https://sketchapp.com -->
    <title>tech</title>
    <desc>Created with Sketch.</desc>
    <defs>
        <rect id="path-1" x="0" y="0" width="373" height="373"></rect>
        <mask id="mask-2" maskContentUnits="userSpaceOnUse" maskUnits="objectBoundingBox" x="0" y="0" width="373" height="373" fill="white">
            <use xlink:href="#path-1"></use>
        </mask>
        <rect id="path-3" x="0" y="0" width="373" height="373"></rect>
        <mask id="mask-4" maskContentUnits="userSpaceOnUse" maskUnits="objectBoundingBox" x="0" y="0" width="373" height="373" fill="white">
            <use xlink:href="#path-3"></use>
        </mask>
        <rect id="path-5" x="6" y="0" width="373" height="373"></rect>
        <mask id="mask-6" maskContentUnits="userSpaceOnUse" maskUnits="objectBoundingBox" x="0" y="0" width="373" height="373" fill="white">
            <use xlink:href="#path-5"></use>
        </mask>
        <rect id="path-7" x="0" y="0" width="373" height="373"></rect>
        <mask id="mask-8" maskContentUnits="userSpaceOnUse" maskUnits="objectBoundingBox" x="0" y="0" width="373" height="373" fill="white">
            <use xlink:href="#path-7"></use>
        </mask>
        <rect id="path-9" x="0" y="0" width="373" height="373"></rect>
        <mask id="mask-10" maskContentUnits="userSpaceOnUse" maskUnits="objectBoundingBox" x="0" y="0" width="373" height="373" fill="white">
            <use xlink:href="#path-9"></use>
        </mask>
        <rect id="path-11" x="6" y="0" width="373" height="373"></rect>
        <mask id="mask-12" maskContentUnits="userSpaceOnUse" maskUnits="objectBoundingBox" x="0" y="0" width="373" height="373" fill="white">
            <use xlink:href="#path-11"></use>
        </mask>
    </defs>
    <g id="tech" stroke="none" stroke-width="1" fill="none" fill-rule="evenodd">
        <g id="Group" transform="translate(218.000000, 143.000000)">
            <rect id="Rectangle" fill="#000000" x="61" y="622" width="70" height="70"></rect>
            <rect id="Rectangle-Copy" fill="#000000" x="155" y="622" width="70" height="70"></rect>
            <rect id="Rectangle-Copy-2" fill="#000000" x="249" y="622" width="70" height="70"></rect>
            <rect id="Rectangle-Copy-6" stroke="#000000" stroke-width="12" x="1296" y="484" width="154" height="211" rx="24"></rect>
            <g id="Group-3" transform="translate(42.000000, 0.000000)">
                <g id="Group-10">
                    <g id="Group-8" transform="translate(581.000000, 0.000000)">
                        <text id="B-Color-light-is-emi" font-family="HelveticaNeue, Helvetica Neue" font-size="36" font-weight="normal" fill="#000000">
                            <tspan x="178.67" y="125">B</tspan>
                            <tspan x="108.344" y="167">Color light </tspan>
                            <tspan x="70.616" y="209">is emitted from </tspan>
                            <tspan x="51.302" y="251">screen to camera</tspan>
                        </text>
                        <use id="Rectangle" stroke="#000000" mask="url(#mask-2)" stroke-width="24" stroke-dasharray="10,20" xlink:href="#path-1"></use>
                    </g>
                    <g id="Group-9" transform="translate(1156.000000, 0.000000)">
                        <text id="C-Each-packet-is-the" font-family="HelveticaNeue, Helvetica Neue" font-size="36" font-weight="normal" fill="#000000">
                            <tspan x="173.004" y="98">C</tspan>
                            <tspan x="85.974" y="140">Each packet</tspan>
                            <tspan x="26.934" y="182"> is then recombined </tspan>
                            <tspan x="57.984" y="224">on the receivers </tspan>
                            <tspan x="133.332" y="266">device</tspan>
                        </text>
                        <use id="Rectangle" stroke="#000000" mask="url(#mask-4)" stroke-width="24" stroke-dasharray="10,20" xlink:href="#path-3"></use>
                    </g>
                    <g id="Group-7">
                        <text id="A-Split-data-into-pa" font-family="HelveticaNeue, Helvetica Neue" font-size="36" font-weight="normal" fill="#000000">
                            <tspan x="178.336" y="140">A</tspan>
                            <tspan x="113.32" y="182">Split data </tspan>
                            <tspan x="76.978" y="224">into packages</tspan>
                        </text>
                        <use id="Rectangle" stroke="#000000" mask="url(#mask-6)" stroke-width="24" stroke-dasharray="10,20" xlink:href="#path-5"></use>
                    </g>
                </g>
            </g>
            <g id="Group-3-Copy" transform="translate(42.000000, 1340.000000)">
                <g id="Group-10">
                    <g id="Group-8" transform="translate(581.000000, 0.000000)">
                        <text id="B-A-sequence-of-fram" font-family="HelveticaNeue, Helvetica Neue" font-size="36" font-weight="normal" fill="#000000">
                            <tspan x="178.67" y="125">B</tspan>
                            <tspan x="75.314" y="167">A sequence of </tspan>
                            <tspan x="60.302" y="209">frames store the </tspan>
                            <tspan x="53.624" y="251">information in 4D</tspan>
                        </text>
                        <use id="Rectangle" stroke="#000000" mask="url(#mask-8)" stroke-width="24" stroke-dasharray="10,20" xlink:href="#path-7"></use>
                    </g>
                    <g id="Group-9" transform="translate(1156.000000, 0.000000)">
                        <text id="C-The-GPU-chip-proce" font-family="HelveticaNeue, Helvetica Neue" font-size="36" font-weight="normal" fill="#000000">
                            <tspan x="173.004" y="98">C</tspan>
                            <tspan x="71.322" y="140">The GPU-chip</tspan>
                            <tspan x="27.654" y="182">processes the color </tspan>
                            <tspan x="54.312" y="224">signals into data</tspan>
                        </text>
                        <use id="Rectangle" stroke="#000000" mask="url(#mask-10)" stroke-width="24" stroke-dasharray="10,20" xlink:href="#path-9"></use>
                    </g>
                    <g id="Group-7">
                        <text id="A-Color-light-enable" font-family="HelveticaNeue, Helvetica Neue" font-size="36" font-weight="normal" fill="#000000">
                            <tspan x="178.336" y="140">A</tspan>
                            <tspan x="106.336" y="182">Color-light</tspan>
                            <tspan x="36.964" y="224">enables us to store </tspan>
                            <tspan x="0.298" y="266">information in 3D layers</tspan>
                        </text>
                        <use id="Rectangle" stroke="#000000" mask="url(#mask-12)" stroke-width="24" stroke-dasharray="10,20" xlink:href="#path-11"></use>
                    </g>
                </g>
            </g>
            <polyline id="Path" stroke="#000000" stroke-width="12" stroke-linecap="round" stroke-linejoin="round" points="338 657 338 594 42 594 42 657"></polyline>
            <polyline id="Path-2" stroke="#000000" stroke-width="12" points="190 590 190 548 450 548"></polyline>
            <path d="M1018,578.5 L1199,578.5" id="Path-2-Copy" stroke="#000000" stroke-width="12" transform="translate(1108.000000, 578.500000) scale(-1, 1) translate(-1108.000000, -578.500000) "></path>
            <polyline id="Path-3-Copy" stroke="#000000" stroke-width="12" stroke-linecap="round" stroke-linejoin="round" points="1158 545 1198 580.085677 1158 611"></polyline>
            <g id="Group-2" transform="translate(536.000000, 478.000000)" stroke="#000000" stroke-width="12">
                <rect id="Rectangle" x="6" y="6" width="107" height="211" rx="32"></rect>
                <circle id="Oval" cx="60" cy="176" r="14"></circle>
                <rect id="Rectangle" x="31" y="31" width="58" height="111" rx="22"></rect>
            </g>
            <rect id="Rectangle-Copy-3" stroke="#000000" stroke-width="12" x="853" y="484" width="107" height="211" rx="32"></rect>
            <circle id="Oval-Copy" stroke="#000000" stroke-width="12" cx="907" cy="558" r="14"></circle>
            <polyline id="Path-3" stroke="#000000" stroke-width="12" stroke-linecap="round" stroke-linejoin="round" points="420 512 460 547.085677 420 578"></polyline>
            <path d="M679,590 C696.673112,590 711,575.673112 711,558 C711,540.326888 696.673112,526 679,526" id="Oval" stroke="#000000" stroke-width="12"></path>
            <path d="M730,590 C747.673112,590 762,575.673112 762,558 C762,540.326888 747.673112,526 730,526" id="Oval-Copy-2" stroke="#000000" stroke-width="12"></path>
            <path d="M785,590 C802.673112,590 817,575.673112 817,558 C817,540.326888 802.673112,526 785,526" id="Oval-Copy-3" stroke="#000000" stroke-width="12"></path>
            <text id="PDF" font-family="HelveticaNeue-Bold, Helvetica Neue" font-size="48" font-weight="bold" fill="#000000">
                <tspan x="1325.476" y="608">PDF</tspan>
            </text>
            <text id="HASH:-KX57P" font-family="HelveticaNeue, Helvetica Neue" font-size="48" font-weight="normal" fill="#000000">
                <tspan x="37.984" y="780">HASH: KX57P</tspan>
            </text>
            <text id="HASH:-KX57P-?" font-family="HelveticaNeue, Helvetica Neue" font-size="48" font-weight="normal" fill="#000000">
                <tspan x="1201.468" y="780">HASH: KX57P ?</tspan>
            </text>
        </g>
        <g id="Group-6" transform="translate(677.000000, 1113.000000)">
            <g id="Group-12">
                <g id="Group-5" transform="translate(8.000000, 53.000000)" fill="#000000" font-family="HelveticaNeue, Helvetica Neue" font-size="48" font-weight="normal">
                    <text id="01-Frame">
                        <tspan x="68.312" y="46">01 </tspan>
                        <tspan x="26.984" y="102">Frame</tspan>
                    </text>
                    <text id="02-Frame">
                        <tspan x="288.312" y="46">02</tspan>
                        <tspan x="246.984" y="102">Frame</tspan>
                    </text>
                    <text id="03-Frame">
                        <tspan x="516.312" y="46">03</tspan>
                        <tspan x="474.984" y="102">Frame</tspan>
                    </text>
                </g>
                <rect id="Rectangle-Copy-8" stroke="#000000" stroke-width="12" x="6" y="6" width="192" height="192"></rect>
                <rect id="Rectangle-Copy-9" stroke="#000000" stroke-width="12" x="227" y="6" width="192" height="192"></rect>
                <rect id="Rectangle-Copy-10" stroke="#000000" stroke-width="12" x="448" y="6" width="192" height="192"></rect>
            </g>
        </g>
        <g id="Group-4" transform="translate(271.000000, 1064.000000)">
            <path d="M62,30.0918795 L275.47549,30.0918795 L275.47549,246 L303,246 L303,6 L62,6 L62,30.0918795 Z" id="Rectangle-Copy-4" stroke="#000000" stroke-width="12"></path>
            <rect id="Rectangle-Copy-5" stroke="#000000" stroke-width="12" x="6" y="57" width="241" height="240"></rect>
            <text id="RGB-Layers" font-family="HelveticaNeue, Helvetica Neue" font-size="48" font-weight="normal" fill="#000000">
                <tspan x="69.404" y="166">RGB</tspan>
                <tspan x="49.388" y="222">Layers</tspan>
            </text>
        </g>
        <g id="Group-13" transform="translate(1449.000000, 1083.000000)">
            <g id="Group-11" transform="translate(52.000000, 62.000000)">
                <rect id="Rectangle" stroke="#000000" stroke-width="12" x="17.0816327" y="6" width="147.760204" height="148"></rect>
                <text id="GPU" font-family="HelveticaNeue, Helvetica Neue" font-size="48" font-weight="normal" fill="#000000">
                    <tspan x="39.404" y="102.091954">GPU</tspan>
                </text>
            </g>
            <rect id="Rectangle" stroke="#000000" stroke-width="12" x="6" y="6" width="272" height="272" rx="39"></rect>
        </g>
        <path d="M306,1118.09188 L519.47549,1118.09188 L519.47549,1334 L547,1334 L547,1094 L306,1094 L306,1118.09188 Z" id="Rectangle-Copy-4" stroke="#000000" stroke-width="12"></path>
    </g>
</svg>