<?xml version="1.0" encoding="UTF-8"?>
<svg width="2000px" height="2000px" viewBox="0 0 2000 2000" version="1.1" xmlns="http://www.w3.org/2000/svg" xmlns:xlink="http://www.w3.org/1999/xlink">
    <!-- Generator: Sketch 53.2 (72643) - https://sketchapp.com -->
    <title>one2many</title>
    <desc>Created with Sketch.</desc>
    <g id="one2many" stroke="none" stroke-width="1" fill="none" fill-rule="evenodd">
        <path d="M393.852475,1107 L746,1107" id="Line" stroke="#FFFFFF" stroke-width="10" stroke-linecap="square" stroke-dasharray="10,20"></path>
        <g id="Group-7" transform="translate(404.500000, 1107.000000) rotate(-180.000000) translate(-404.500000, -1107.000000) translate(387.000000, 1075.000000)" stroke="#FFFFFF" stroke-dasharray="10,20" stroke-linecap="square" stroke-width="10">
            <path d="M34,34 L0,0" id="Line-Copy"></path>
            <path d="M34,34 L4,64" id="Line-Copy"></path>
        </g>
        <path d="M1421.25,802 L1245,929" id="Line" stroke="#FFFFFF" stroke-width="10" stroke-linecap="square" stroke-dasharray="10,20"></path>
        <g id="Group-7" transform="translate(1422.001786, 802.001786) rotate(-45.000000) translate(-1422.001786, -802.001786) translate(1404.501786, 770.001786)" stroke="#FFFFFF" stroke-dasharray="10,20" stroke-linecap="square" stroke-width="10">
            <path d="M34,34 L0,0" id="Line-Copy"></path>
            <path d="M34,34 L4,64" id="Line-Copy"></path>
        </g>
        <path d="M624,795 L779,926" id="Line" stroke="#FFFFFF" stroke-width="10" stroke-linecap="square" stroke-dasharray="10,20"></path>
        <g id="Group-7" transform="translate(623.001786, 795.001786) rotate(-135.000000) translate(-623.001786, -795.001786) translate(605.501786, 763.001786)" stroke="#FFFFFF" stroke-dasharray="10,20" stroke-linecap="square" stroke-width="10">
            <path d="M34,34 L0,0" id="Line-Copy"></path>
            <path d="M34,34 L4,64" id="Line-Copy"></path>
        </g>
        <path d="M1588.5,1107 L1254,1107" id="Line" stroke="#FFFFFF" stroke-width="10" stroke-linecap="square" stroke-dasharray="10,20"></path>
        <g id="Group-7" transform="translate(1571.000000, 1070.000000)" stroke="#FFFFFF" stroke-dasharray="10,20" stroke-linecap="square" stroke-width="10">
            <path d="M34,34 L0,0" id="Line-Copy"></path>
            <path d="M34,34 L4,64" id="Line-Copy"></path>
        </g>
        <path d="M1008,807 L1007.5,929" id="Line" stroke="#FFFFFF" stroke-width="10" stroke-linecap="square" stroke-dasharray="10,20"></path>
        <g id="Group-7" transform="translate(1006.000000, 819.500000) rotate(-90.000000) translate(-1006.000000, -819.500000) translate(988.500000, 787.500000)" stroke="#FFFFFF" stroke-dasharray="10,20" stroke-linecap="square" stroke-width="10">
            <path d="M34,34 L0,0" id="Line-Copy"></path>
            <path d="M34,34 L4,64" id="Line-Copy"></path>
        </g>
        <g id="Group" transform="translate(746.000000, 926.000000)" stroke="#FFFFFF" stroke-width="12">
            <path d="M254,334 L155,512.553419" id="Line" stroke-linecap="square"></path>
            <path d="M353,332.446581 L260,512" id="Line" stroke-linecap="square" transform="translate(306.000000, 422.500000) scale(1, -1) translate(-306.000000, -422.500000) "></path>
            <rect id="Rectangle" x="0" y="0" width="508" height="330" rx="39"></rect>
        </g>
        <g id="Group-2-Copy-4" transform="translate(237.000000, 990.000000)" stroke="#FFFFFF" stroke-width="12">
            <rect id="Rectangle" x="6" y="6" width="107" height="211" rx="32"></rect>
            <circle id="Oval" cx="60" cy="176" r="14"></circle>
            <rect id="Rectangle" x="31" y="31" width="58" height="111" rx="22"></rect>
        </g>
        <g id="Group-2-Copy-5" transform="translate(941.000000, 561.000000)" stroke="#FFFFFF" stroke-width="12">
            <rect id="Rectangle" x="6" y="6" width="107" height="211" rx="32"></rect>
            <circle id="Oval" cx="60" cy="176" r="14"></circle>
            <rect id="Rectangle" x="31" y="31" width="58" height="111" rx="22"></rect>
        </g>
        <g id="Group-2-Copy-7" transform="translate(1487.000000, 602.000000)" stroke="#FFFFFF" stroke-width="12">
            <rect id="Rectangle" x="6" y="6" width="107" height="211" rx="32"></rect>
            <circle id="Oval" cx="60" cy="176" r="14"></circle>
            <rect id="Rectangle" x="31" y="31" width="58" height="111" rx="22"></rect>
        </g>
        <g id="Group-2-Copy-8" transform="translate(1644.000000, 990.000000)" stroke="#FFFFFF" stroke-width="12">
            <rect id="Rectangle" x="6" y="6" width="107" height="211" rx="32"></rect>
            <circle id="Oval" cx="60" cy="176" r="14"></circle>
            <rect id="Rectangle" x="31" y="31" width="58" height="111" rx="22"></rect>
        </g>
        <g id="Group-2-Copy-6" transform="translate(456.000000, 640.000000)" stroke="#FFFFFF" stroke-width="12">
            <rect id="Rectangle" x="6" y="6" width="107" height="211" rx="32"></rect>
            <circle id="Oval" cx="60" cy="176" r="14"></circle>
            <rect id="Rectangle" x="31" y="31" width="58" height="111" rx="22"></rect>
        </g>
        <text id="One-to-many-sharing" font-family="HelveticaNeue, Helvetica Neue" font-size="56" font-weight="normal" fill="#FFFFFF">
            <tspan x="839.168" y="1065">One to many</tspan>
            <tspan x="908.216" y="1130">sharing</tspan>
        </text>
    </g>
</svg>